<?xml version="1.0" encoding="utf-8"?>
<!-- Generator: Adobe Illustrator 17.0.0, SVG Export Plug-In . SVG Version: 6.00 Build 0)  -->
<!DOCTYPE svg PUBLIC "-//W3C//DTD SVG 1.1//EN" "http://www.w3.org/Graphics/SVG/1.1/DTD/svg11.dtd">
<svg version="1.1" id="Layer_1" xmlns="http://www.w3.org/2000/svg" xmlns:xlink="http://www.w3.org/1999/xlink" x="0px" y="0px"
	 width="100px" height="100px" viewBox="0 0 100 100" enable-background="new 0 0 100 100" xml:space="preserve">
<path fill="#1ABC9C" d="M100,94c0,3.313-2.687,6-6,6H6c-3.313,0-6-2.687-6-6V16c0-3.313,2.687-6,6-6h88c3.313,0,6,2.687,6,6V94z"/>
<path fill="#FFFFFF" d="M82,87c0,1.104-0.896,2-2,2H20c-1.104,0-2-0.896-2-2V18c0-1.104,0.896-2,2-2h60c1.104,0,2,0.896,2,2V87z"/>
<path fill="#BDC3C7" d="M72,20H28c-1.657,0-3-1.343-3-3v-7c0-1.657,1.343-3,3-3h15c0-3.866,3.134-7,7-7s7,3.134,7,7h15
	c1.657,0,3,1.343,3,3v7C75,18.657,73.657,20,72,20z M50,4c-1.657,0-3,1.344-3,3c0,1.657,1.343,3,3,3s3-1.343,3-3
	C53,5.344,51.657,4,50,4z"/>
<path fill="#A1A6A9" d="M72,20H28c-1.656,0-3-1.343-3-3v-2c0,1.657,1.344,3,3,3h44c1.656,0,3-1.343,3-3v2C75,18.657,73.656,20,72,20
	z"/>
<path opacity="0.15" enable-background="new    " d="M94,97H6c-3.313,0-6-2.687-6-6v3c0,3.313,2.687,6,6,6h88c3.313,0,6-2.687,6-6
	v-3C100,94.313,97.313,97,94,97z"/>
<path fill="#BDC3C7" d="M41,40.999v3h31v-3H41z M41,55h31v-3.001H41V55z M41,65.998h31v-2.999H41V65.998z M41,76.999h31v-3H41
	V76.999z M28,45.999h7v-7h-7V45.999z M28,56.999h7v-7h-7V56.999z M28,67.999h7v-7h-7V67.999z M28,79h7v-7.001h-7V79z"/>
<path fill="#1ABC9C" d="M41,29v3.001h31V29H41z M35.927,27.786l-0.708-0.713c-0.097-0.098-0.256-0.098-0.354,0l-3.728,3.703
	c-0.098,0.099-0.257,0.099-0.354,0l-1.633-1.66c-0.048-0.049-0.112-0.072-0.175-0.073c-0.064,0-0.13,0.023-0.179,0.073l-0.722,0.648
	C28.026,29.813,28,29.874,28,29.939l0.011,0.054H28v0.998h0.011l0.063,0.127l1.647,1.725l0.354,0.355l0.708,0.713
	c0.097,0.098,0.256,0.098,0.354,0l4.79-4.771l0.067-0.144H36v-0.998h-0.006C36.004,27.922,35.984,27.843,35.927,27.786z"/>
<path fill="#A1A6A9" d="M50,4c1.305,0,2.403,0.837,2.816,2C52.928,5.687,53,5.354,53,5.001c0-1.657-1.344-3-3-3
	c-1.657,0-3.001,1.343-3.001,3c0,0.353,0.072,0.686,0.184,1C47.596,4.838,48.695,4,50,4z"/>
</svg>
